<svg width="18" height="18" viewBox="0 0 18 18" fill="none" xmlns="http://www.w3.org/2000/svg">
<path d="M1 9C1 5.22876 1 3.34315 2.17157 2.17157C3.34315 1 5.22876 1 9 1C12.7712 1 14.6569 1 15.8284 2.17157C17 3.34315 17 5.22876 17 9C17 12.7712 17 14.6569 15.8284 15.8284C14.6569 17 12.7712 17 9 17C5.22876 17 3.34315 17 2.17157 15.8284C1 14.6569 1 12.7712 1 9Z" stroke="#191D24" stroke-width="1.5"/>
<path d="M8.25 13.7996C8.25 14.2138 8.58579 14.5496 9 14.5496C9.41421 14.5496 9.75 14.2138 9.75 13.7996H8.25ZM13.8 5.79961L14.3303 6.32994C14.6232 6.03705 14.6232 5.56217 14.3303 5.26928L13.8 5.79961ZM13.1303 4.06928C12.8374 3.77639 12.3626 3.77639 12.0697 4.06928C11.7768 4.36217 11.7768 4.83705 12.0697 5.12994L13.1303 4.06928ZM12.0697 6.46928C11.7768 6.76217 11.7768 7.23705 12.0697 7.52994C12.3626 7.82283 12.8374 7.82283 13.1303 7.52994L12.0697 6.46928ZM9.75 13.7996V8.99961H8.25V13.7996H9.75ZM12.2 6.54961H13.8V5.04961H12.2V6.54961ZM14.3303 5.26928L13.1303 4.06928L12.0697 5.12994L13.2697 6.32994L14.3303 5.26928ZM13.2697 5.26928L12.0697 6.46928L13.1303 7.52994L14.3303 6.32994L13.2697 5.26928ZM9.75 8.99961C9.75 7.64651 10.8469 6.54961 12.2 6.54961V5.04961C10.0185 5.04961 8.25 6.81808 8.25 8.99961H9.75Z" fill="#191D24"/>
<path d="M8.2502 13.7996C8.2502 14.2138 8.58598 14.5496 9.0002 14.5496C9.41441 14.5496 9.7502 14.2138 9.7502 13.7996H8.2502ZM4.2002 5.79961L3.66987 5.26928C3.37697 5.56217 3.37697 6.03705 3.66987 6.32994L4.2002 5.79961ZM5.93053 5.12994C6.22342 4.83705 6.22342 4.36217 5.93053 4.06928C5.63763 3.77639 5.16276 3.77639 4.86987 4.06928L5.93053 5.12994ZM4.86987 7.52994C5.16276 7.82283 5.63763 7.82283 5.93053 7.52994C6.22342 7.23705 6.22342 6.76217 5.93053 6.46928L4.86987 7.52994ZM9.7502 13.7996V8.99961H8.2502V13.7996H9.7502ZM5.8002 5.04961H4.2002V6.54961H5.8002V5.04961ZM4.73053 6.32994L5.93053 5.12994L4.86987 4.06928L3.66987 5.26928L4.73053 6.32994ZM3.66987 6.32994L4.86987 7.52994L5.93053 6.46928L4.73053 5.26928L3.66987 6.32994ZM9.7502 8.99961C9.7502 6.81808 7.98172 5.04961 5.8002 5.04961V6.54961C7.15329 6.54961 8.2502 7.64651 8.2502 8.99961H9.7502Z" fill="#191D24"/>
</svg>
