<svg width="16" height="16" viewBox="0 0 16 16" fill="none" xmlns="http://www.w3.org/2000/svg">
<path d="M8.80033 10.1328V12.016C8.80033 12.163 8.80033 12.2364 8.74974 12.2661C8.69915 12.2958 8.62996 12.263 8.49159 12.1973L7.82906 11.8825C7.78225 11.8603 7.75884 11.8492 7.73366 11.8492C7.70848 11.8492 7.68507 11.8603 7.63825 11.8825L6.97573 12.1973C6.83736 12.263 6.76817 12.2958 6.71758 12.2661C6.66699 12.2364 6.66699 12.163 6.66699 12.016V10.3728" stroke="#384252" stroke-linecap="round"/>
<path d="M6.13379 7.19922H8.80046" stroke="#384252" stroke-linecap="round"/>
<path d="M6.13379 5.33203H10.4005" stroke="#384252" stroke-linecap="round"/>
<path d="M12.4788 10.1328H6.07881C5.58283 10.1328 5.33484 10.1328 5.13137 10.1873C4.57922 10.3353 4.14795 10.7666 4 11.3187" stroke="#384252"/>
<path d="M4 5.86602C4 4.35752 4 3.60327 4.46863 3.13464C4.93726 2.66602 5.69151 2.66602 7.2 2.66602H9.33333C10.8418 2.66602 11.5961 2.66602 12.0647 3.13464C12.5333 3.60327 12.5333 4.35752 12.5333 5.86602V10.1327C12.5333 11.6412 12.5333 12.3954 12.0647 12.8641C11.5961 13.3327 10.8418 13.3327 9.33333 13.3327H7.2C5.69151 13.3327 4.93726 13.3327 4.46863 12.8641C4 12.3954 4 11.6412 4 10.1327V5.86602Z" stroke="#384252"/>
</svg>
