<svg width="20" height="20" viewBox="0 0 20 20" fill="none" xmlns="http://www.w3.org/2000/svg">
<path d="M8.66634 16.6667C11.6119 16.6667 13.9997 14.2789 13.9997 11.3333C13.9997 8.38781 11.6119 6 8.66634 6C5.72082 6 3.33301 8.38781 3.33301 11.3333C3.33301 12.157 3.51972 12.9371 3.85314 13.6335C3.96774 13.8729 4.00797 14.144 3.93938 14.4004L3.72068 15.2178C3.54831 15.862 4.13768 16.4514 4.78191 16.279L5.59927 16.0603C5.85563 15.9917 6.12681 16.0319 6.36618 16.1465C7.06261 16.4799 7.84267 16.6667 8.66634 16.6667Z" stroke="#191D24" stroke-width="1.25"/>
<path d="M13.9997 11.6685C14.044 11.6501 14.0879 11.6309 14.1315 11.611C14.3729 11.5007 14.6437 11.4595 14.9001 11.5281L15.2174 11.613C15.8617 11.7853 16.451 11.196 16.2787 10.5518L16.1938 10.2344C16.1252 9.97803 16.1664 9.70719 16.2767 9.4658C16.5269 8.91798 16.6663 8.30893 16.6663 7.66732C16.6663 5.27408 14.7262 3.33398 12.333 3.33398C10.5315 3.33398 8.98675 4.43331 8.33301 5.99772" stroke="#191D24" stroke-width="1.25"/>
<path d="M6.34584 11.334H6.35184M8.67299 11.334H8.67899M11.0003 11.334H11.0063" stroke="#191D24" stroke-width="1.25" stroke-linecap="round" stroke-linejoin="round"/>
</svg>
