<svg width="83" height="19" viewBox="0 0 83 19" fill="none" xmlns="http://www.w3.org/2000/svg">
<path d="M24.1824 5.03634H27.6415C29.5575 5.03634 30.5523 5.82197 30.5523 7.29715V7.37063C30.5796 7.80292 30.4508 8.23066 30.1895 8.57605C29.9281 8.92145 29.5514 9.16157 29.128 9.25276C29.6351 9.29739 30.1041 9.54026 30.4332 9.92863C30.7623 10.317 30.9249 10.8195 30.8858 11.3271V11.3779C30.8858 12.9888 29.8288 13.8366 27.7997 13.8366H24.1824V5.03634ZM27.3193 8.64799C28.2802 8.64799 28.6589 8.30322 28.6589 7.51758V7.46671C28.6589 6.73195 28.2406 6.39848 27.308 6.39848H26.1267V8.65929L27.3193 8.64799ZM27.4889 12.4518C28.4723 12.4518 28.9188 12.0053 28.9188 11.2084V11.1575C28.9188 10.3436 28.4723 9.931 27.3928 9.931H26.1267V12.4575L27.4889 12.4518Z" fill="black"/>
<path d="M31.4058 12.0449C31.4058 10.5414 32.7793 9.97623 34.7518 9.97623H35.4753V9.72189C35.4753 8.95887 35.2436 8.54062 34.4297 8.54062C34.2979 8.52497 34.1644 8.53646 34.0372 8.57438C33.9101 8.61229 33.7921 8.67583 33.6904 8.76107C33.5887 8.84632 33.5056 8.95147 33.4461 9.07005C33.3866 9.18863 33.352 9.31814 33.3445 9.45059H31.6489C31.7619 7.92454 32.9658 7.2463 34.5427 7.2463C36.1196 7.2463 37.2331 7.88498 37.2331 9.63146V13.8253H35.4979V13.0509C35.2801 13.3578 34.9865 13.6029 34.6458 13.7624C34.305 13.9219 33.9287 13.9903 33.5536 13.9609C32.3893 13.9609 31.4058 13.3957 31.4058 12.0449ZM35.4753 11.5758V11.0106H34.7857C33.7514 11.0106 33.1523 11.2366 33.1523 11.9205C33.1523 12.3897 33.4349 12.7005 34.0849 12.7005C34.8705 12.7231 35.4753 12.2879 35.4753 11.5758Z" fill="black"/>
<path d="M37.9847 11.8075H39.6464C39.7199 12.3727 40.0025 12.7231 40.7768 12.7231C41.4663 12.7231 41.7885 12.4631 41.7885 12.0166C41.7885 11.5701 41.4042 11.3892 40.4829 11.2592C38.7873 10.9993 38.109 10.5075 38.109 9.25277C38.109 7.99802 39.3412 7.2463 40.6525 7.2463C42.0824 7.2463 43.1507 7.76629 43.3089 9.24147H41.6755C41.5794 8.71018 41.2798 8.46714 40.6694 8.46714C40.059 8.46714 39.7594 8.73844 39.7594 9.12843C39.7594 9.51842 40.0646 9.69363 40.9972 9.82928C42.6081 10.061 43.4954 10.468 43.4954 11.8471C43.4954 13.2262 42.4894 13.9609 40.7881 13.9609C39.0868 13.9609 38.0469 13.1979 37.9847 11.8075Z" fill="black"/>
<path d="M43.9533 10.6884V10.5923C43.9318 10.1506 44.0024 9.70923 44.1604 9.29621C44.3185 8.88319 44.5606 8.5075 44.8714 8.19294C45.1823 7.87838 45.5551 7.63181 45.9662 7.46886C46.3773 7.3059 46.8178 7.23011 47.2597 7.24628C48.9214 7.24628 50.3966 8.21843 50.3966 10.5188V11.0105H45.7789C45.8241 12.0788 46.4062 12.7062 47.3727 12.7062C48.1979 12.7062 48.6049 12.3501 48.7179 11.8075H50.4135C50.2044 13.1979 49.0966 13.9722 47.3388 13.9722C45.3663 13.9609 43.9533 12.7457 43.9533 10.6884ZM48.6614 9.91404C48.6049 8.94189 48.1075 8.50103 47.2597 8.50103C46.878 8.49923 46.5105 8.64544 46.2344 8.90893C45.9582 9.17243 45.7949 9.5327 45.7789 9.91404H48.6614Z" fill="black"/>
<path d="M50.8657 10.6883V10.5922C50.8442 10.1495 50.915 9.70721 51.0738 9.29339C51.2325 8.87956 51.4756 8.50332 51.7877 8.18858C52.0998 7.87385 52.474 7.62753 52.8864 7.46529C53.2989 7.30305 53.7406 7.22845 54.1835 7.24623C55.6756 7.24623 57.049 7.89622 57.2129 9.74443H55.5173C55.5061 9.5858 55.463 9.43104 55.3908 9.28937C55.3185 9.14769 55.2185 9.02198 55.0967 8.9197C54.9749 8.81742 54.8338 8.74066 54.6818 8.69397C54.5298 8.64729 54.3699 8.63163 54.2117 8.64794C53.2904 8.64794 52.6744 9.33749 52.6744 10.5696V10.6657C52.6744 11.96 53.2396 12.6213 54.2513 12.6213C54.4234 12.6312 54.5958 12.6068 54.7584 12.5494C54.921 12.492 55.0705 12.4029 55.1984 12.2872C55.3262 12.1715 55.4297 12.0315 55.5029 11.8754C55.5761 11.7193 55.6175 11.5501 55.6247 11.3779H57.2356C57.1395 12.9039 56.0317 13.9609 54.1608 13.9609C52.29 13.9609 50.8657 12.7909 50.8657 10.6883Z" fill="black"/>
<path d="M57.6482 12.0449C57.6482 10.5414 59.0217 9.97622 60.9886 9.97622H61.7177V9.72188C61.7177 8.95885 61.4803 8.5406 60.6721 8.5406C60.5395 8.52329 60.4047 8.53353 60.2762 8.57067C60.1477 8.60782 60.0283 8.67107 59.9254 8.75648C59.8225 8.84189 59.7383 8.94762 59.6781 9.06705C59.6179 9.18648 59.583 9.31705 59.5756 9.45058H57.88C57.993 7.92453 59.1969 7.24628 60.7682 7.24628C62.3394 7.24628 63.4642 7.88497 63.4642 9.63144V13.8253H61.729V13.0509C61.5113 13.3578 61.2177 13.6029 60.8769 13.7624C60.5361 13.9219 60.1598 13.9903 59.7847 13.9609C58.6543 13.9609 57.6482 13.3957 57.6482 12.0449ZM61.7177 11.5757V11.0105H61.0395C60.0051 11.0105 59.4004 11.2366 59.4004 11.9205C59.4004 12.3896 59.6886 12.7005 60.3386 12.7005C61.1356 12.7231 61.7403 12.2879 61.7403 11.5757H61.7177Z" fill="black"/>
<path d="M64.7188 7.3706H66.4992V8.35406C66.6933 8.00464 66.979 7.71475 67.3256 7.51558C67.6722 7.3164 68.0665 7.21548 68.4661 7.22365C68.8475 7.19314 69.2286 7.28671 69.5525 7.49042C69.8764 7.69413 70.1258 7.99706 70.2635 8.35406C70.5008 7.99952 70.8234 7.71025 71.2016 7.51275C71.5798 7.31525 72.0016 7.21584 72.4282 7.22365C73.6208 7.22365 74.542 7.97537 74.542 9.68229V13.8026H72.773V9.90271C72.773 9.07752 72.4056 8.71013 71.7612 8.71013C71.5898 8.70268 71.4188 8.73229 71.2599 8.79695C71.101 8.86162 70.9579 8.9598 70.8404 9.08482C70.7229 9.20983 70.6338 9.35872 70.5791 9.52134C70.5244 9.68395 70.5054 9.85645 70.5234 10.0271V13.8252H68.7487V9.90271C68.7487 9.07752 68.37 8.71013 67.7426 8.71013C67.5708 8.70184 67.3992 8.73083 67.2395 8.79512C67.0799 8.85941 66.9361 8.95747 66.818 9.08258C66.6999 9.20769 66.6102 9.35688 66.5552 9.51991C66.5002 9.68294 66.4811 9.85595 66.4992 10.0271V13.8252H64.7188V7.3706Z" fill="black"/>
<path d="M75.763 7.37061H77.549V8.38233C77.7619 8.02846 78.0627 7.73574 78.4222 7.53269C78.7818 7.32964 79.1878 7.22317 79.6007 7.22366C81.1777 7.22366 82.4268 8.39363 82.4268 10.5188V10.6205C82.4268 12.7457 81.2229 13.9383 79.6007 13.9383C79.1881 13.9552 78.7788 13.8588 78.4171 13.6595C78.0554 13.4602 77.7552 13.1657 77.549 12.8079V16.0182H75.763V7.37061ZM80.5955 10.5358C80.5955 9.23013 79.9568 8.59145 79.0581 8.59145C78.1595 8.59145 77.4869 9.24144 77.4869 10.5358V10.6318C77.4869 11.9205 78.103 12.5479 79.0751 12.5479C80.0473 12.5479 80.5955 11.8922 80.5955 10.6544V10.5358Z" fill="black"/>
<path fill-rule="evenodd" clip-rule="evenodd" d="M10.968 1.96445C5.95272 1.96445 3.33718 6.21251 1.87274 10.3646C1.69571 10.8665 1.14532 11.1299 0.643398 10.9528C0.284404 10.8262 0.0474424 10.5086 0.00637455 10.1543C-0.00997542 10.0133 0.00472388 9.86643 0.0551333 9.72351C1.54105 5.51056 4.57755 0.0371094 10.968 0.0371094C14.3083 0.0371094 16.6992 2.24693 18.2455 4.90175C19.7958 7.56355 20.6224 10.8594 20.8087 13.5206C20.8221 13.7119 20.7781 13.9028 20.6824 14.0689C19.7869 15.6234 18.2971 16.6364 16.599 17.2569C14.905 17.8758 12.9427 18.1286 10.9758 18.1293C9.3047 18.1553 7.64758 17.8209 6.11736 17.1487C4.5847 16.4755 3.21547 15.4792 2.10324 14.2281C1.86663 13.962 1.79609 13.587 1.9198 13.2531L1.92052 13.2511L1.92191 13.2474L1.92662 13.2349L1.94368 13.1899C1.95839 13.1514 1.97972 13.0961 2.0072 13.0266C2.06212 12.8876 2.14183 12.6908 2.24262 12.4553C2.4433 11.9863 2.7316 11.3543 3.07793 10.7162C3.4197 10.0865 3.83997 9.40949 4.31259 8.87612C4.74344 8.38988 5.41314 7.79754 6.27032 7.79173L6.27685 7.79168C6.88255 7.79168 7.3801 8.06902 7.73824 8.33562C8.09925 8.60436 8.42709 8.94588 8.68983 9.2239C8.71997 9.2558 8.74926 9.28686 8.77777 9.31709C9.02244 9.57651 9.20956 9.77491 9.38734 9.92347C9.40732 9.94017 9.42567 9.9549 9.44241 9.96786C9.50023 9.9088 9.56921 9.83136 9.64862 9.73291C9.93107 9.38276 10.2483 8.88952 10.5553 8.36146C10.8583 7.84036 11.134 7.31543 11.335 6.91838C11.4352 6.72054 11.516 6.55599 11.5715 6.44153C11.5993 6.38433 11.6206 6.33972 11.6349 6.30981L11.6508 6.27627L11.6546 6.26828L11.6554 6.26657C11.8813 5.78474 12.4551 5.57699 12.937 5.80286C13.4189 6.02875 13.6265 6.60254 13.4006 7.08444L13.3985 7.08887L13.3935 7.09949L13.375 7.13854C13.3589 7.17222 13.3356 7.22087 13.3058 7.28236C13.2462 7.40528 13.1604 7.57986 13.0546 7.78896C12.8435 8.20581 12.5495 8.76607 12.2215 9.33016C11.8976 9.88729 11.5228 10.4792 11.1488 10.943C10.9633 11.1729 10.7529 11.403 10.5256 11.5839C10.3245 11.7437 9.96998 11.9799 9.51547 11.9799C8.91446 11.9799 8.4409 11.6443 8.15146 11.4024C7.87868 11.1745 7.60617 10.8847 7.37727 10.6414C7.34706 10.6092 7.3176 10.5779 7.28901 10.5477C7.01762 10.2605 6.7958 10.0368 6.58737 9.88163C6.40469 9.74564 6.31142 9.72327 6.28463 9.71971C6.28463 9.71971 6.28271 9.72043 6.28102 9.72102C6.25156 9.73141 6.07454 9.79382 5.7551 10.1543C5.42389 10.5281 5.08502 11.0586 4.77186 11.6355C4.46326 12.2041 4.20085 12.7781 4.01454 13.2135C3.99053 13.2696 3.96786 13.3232 3.94658 13.3741C4.79471 14.2192 5.79322 14.9012 6.8925 15.3841C8.17114 15.9458 9.55597 16.2248 10.9524 16.2021L10.968 16.2019C12.7911 16.2019 14.5166 15.9657 15.9375 15.4466C17.2447 14.969 18.2419 14.2729 18.8617 13.3488C18.6517 10.9806 17.8973 8.13339 16.5801 5.87178C15.2014 3.50476 13.3307 1.96445 10.968 1.96445ZM9.284 10.1048C9.284 10.1048 9.28821 10.1016 9.29629 10.0975C9.28799 10.1031 9.284 10.1048 9.284 10.1048Z" fill="black"/>
</svg>
