<svg width="16" height="16" viewBox="0 0 16 16" fill="none" xmlns="http://www.w3.org/2000/svg">
<ellipse cx="11.7338" cy="4.26602" rx="1.6" ry="1.6" stroke="#384252"/>
<path d="M5.33301 9.06693L6.29135 7.91692C6.67111 7.46121 6.86099 7.23335 7.11079 7.23335C7.36059 7.23335 7.55046 7.46121 7.93022 7.91692L8.06913 8.0836C8.44888 8.53931 8.63876 8.76717 8.88856 8.76717C9.13836 8.76717 9.32824 8.53931 9.708 8.0836L10.6663 6.93359" stroke="#384252" stroke-linecap="round"/>
<path d="M13.3337 7.19935V7.99935C13.3337 10.5135 13.3337 11.7706 12.5526 12.5516C11.7716 13.3327 10.5145 13.3327 8.00033 13.3327C5.48617 13.3327 4.22909 13.3327 3.44804 12.5516C2.66699 11.7706 2.66699 10.5135 2.66699 7.99935C2.66699 5.48519 2.66699 4.22811 3.44804 3.44706C4.22909 2.66602 5.48617 2.66602 8.00033 2.66602H8.80033" stroke="#384252" stroke-linecap="round"/>
</svg>
