<svg width="20" height="20" viewBox="0 0 20 20" fill="none" xmlns="http://www.w3.org/2000/svg">
<path d="M10.6826 11.7067C9.14279 12.3227 8.37286 12.6306 7.9331 12.3318C7.82883 12.2609 7.73889 12.171 7.66804 12.0667C7.3692 11.627 7.67717 10.857 8.29311 9.3172C8.42449 8.98875 8.49018 8.82452 8.60316 8.69569C8.63195 8.66286 8.66286 8.63195 8.69569 8.60316C8.82452 8.49018 8.98875 8.42449 9.3172 8.29311C10.857 7.67717 11.627 7.3692 12.0667 7.66804C12.171 7.73889 12.2609 7.82883 12.3318 7.9331C12.6306 8.37286 12.3227 9.14279 11.7067 10.6826C11.5754 11.0111 11.5097 11.1753 11.3967 11.3042C11.3679 11.337 11.337 11.3679 11.3042 11.3967C11.1753 11.5097 11.0111 11.5754 10.6826 11.7067Z" stroke="#191D24" stroke-width="1.25"/>
<circle cx="9.99967" cy="10.0007" r="6.66667" stroke="#191D24" stroke-width="1.25"/>
</svg>
