<svg width="20" height="20" viewBox="0 0 20 20" fill="none" xmlns="http://www.w3.org/2000/svg">
<path d="M3.33301 6.63382C3.33301 6.04546 3.33301 5.75128 3.37924 5.50624C3.58277 4.42752 4.42655 3.58374 5.50526 3.38022C5.75031 3.33398 6.04449 3.33398 6.63284 3.33398C6.89062 3.33398 7.01952 3.33398 7.14339 3.34557C7.67744 3.39551 8.18402 3.60534 8.59697 3.94766C8.69275 4.02706 8.78389 4.1182 8.96617 4.30048L9.33301 4.66732C9.87686 5.21117 10.1488 5.4831 10.4744 5.66427C10.6533 5.76379 10.843 5.84239 11.0399 5.8985C11.3983 6.00065 11.7828 6.00065 12.552 6.00065H12.8011C14.556 6.00065 15.4334 6.00065 16.0038 6.51363C16.0562 6.56081 16.1062 6.61074 16.1534 6.6632C16.6663 7.23355 16.6663 8.11101 16.6663 9.86592V11.334C16.6663 13.8481 16.6663 15.1052 15.8853 15.8863C15.1042 16.6673 13.8472 16.6673 11.333 16.6673H8.66634C6.15218 16.6673 4.8951 16.6673 4.11406 15.8863C3.33301 15.1052 3.33301 13.8481 3.33301 11.334V6.63382Z" stroke="#191D24" stroke-width="1.25"/>
<path d="M8.66602 4H12.9993C13.309 4 13.4638 4 13.5937 4.01711C14.4912 4.13526 15.1974 4.84148 15.3156 5.73895C15.3327 5.86891 15.3327 6.02372 15.3327 6.33333" stroke="#191D24" stroke-width="1.25"/>
<path d="M13.9993 8.66797L10.666 8.66797" stroke="#191D24" stroke-width="1.25" stroke-linecap="round"/>
</svg>
