<svg width="16" height="16" viewBox="0 0 16 16" fill="none" xmlns="http://www.w3.org/2000/svg">
<g id="Interface / Filter">
<path id="Vector" d="M12.6665 2.66602H3.33317C2.96498 2.66602 2.6665 2.96449 2.6665 3.33268V4.38987C2.6665 4.56668 2.73674 4.73625 2.86177 4.86128L6.47124 8.47075C6.59627 8.59578 6.6665 8.76535 6.6665 8.94216V12.9207C6.6665 13.4162 7.18804 13.7386 7.63131 13.5169L8.96465 12.8503C9.1905 12.7373 9.33317 12.5065 9.33317 12.254V8.94216C9.33317 8.76535 9.40341 8.59578 9.52843 8.47075L13.1379 4.86128C13.2629 4.73625 13.3332 4.56668 13.3332 4.38987V3.33268C13.3332 2.96449 13.0347 2.66602 12.6665 2.66602Z" stroke="#455166" stroke-linecap="round" stroke-linejoin="round"/>
</g>
</svg>
