<svg width="32" height="32" viewBox="0 0 32 32" fill="none" xmlns="http://www.w3.org/2000/svg">
<path d="M14.4004 20.7988L14.4004 14.9322" stroke="#455166" stroke-linecap="round"/>
<path d="M10.667 14.666H21.3337" stroke="#455166" stroke-linecap="round"/>
<path d="M13.3333 12.799C13.3333 13.0935 13.0945 13.3323 12.7999 13.3323C12.5054 13.3323 12.2666 13.0935 12.2666 12.799C12.2666 12.5044 12.5054 12.2656 12.7999 12.2656C13.0945 12.2656 13.3333 12.5044 13.3333 12.799Z" fill="#455166"/>
<path d="M14.9333 12.799C14.9333 13.0935 14.6945 13.3323 14.3999 13.3323C14.1054 13.3323 13.8666 13.0935 13.8666 12.799C13.8666 12.5044 14.1054 12.2656 14.3999 12.2656C14.6945 12.2656 14.9333 12.5044 14.9333 12.799Z" fill="#455166"/>
<path d="M16.5333 12.799C16.5333 13.0935 16.2945 13.3323 15.9999 13.3323C15.7054 13.3323 15.4666 13.0935 15.4666 12.799C15.4666 12.5044 15.7054 12.2656 15.9999 12.2656C16.2945 12.2656 16.5333 12.5044 16.5333 12.799Z" fill="#455166"/>
<path d="M10.667 15.9993C10.667 13.4852 10.667 12.2281 11.448 11.4471C12.2291 10.666 13.4862 10.666 16.0003 10.666C18.5145 10.666 19.7716 10.666 20.5526 11.4471C21.3337 12.2281 21.3337 13.4852 21.3337 15.9993C21.3337 18.5135 21.3337 19.7706 20.5526 20.5516C19.7716 21.3327 18.5145 21.3327 16.0003 21.3327C13.4862 21.3327 12.2291 21.3327 11.448 20.5516C10.667 19.7706 10.667 18.5135 10.667 15.9993Z" stroke="#455166"/>
</svg>
