<svg width="20" height="20" viewBox="0 0 20 20" fill="none" xmlns="http://www.w3.org/2000/svg">
<path d="M3.33301 10.1366C3.33301 8.61098 3.33301 7.84817 3.67914 7.21581C4.02527 6.58346 4.65764 6.19099 5.92236 5.40607L7.2557 4.57856C8.5926 3.74884 9.26105 3.33398 9.99967 3.33398C10.7383 3.33398 11.4067 3.74884 12.7437 4.57856L14.077 5.40607C15.3417 6.19099 15.9741 6.58346 16.3202 7.21581C16.6663 7.84817 16.6663 8.61098 16.6663 10.1366V11.1506C16.6663 13.7512 16.6663 15.0515 15.8853 15.8594C15.1042 16.6673 13.8472 16.6673 11.333 16.6673H8.66634C6.15218 16.6673 4.8951 16.6673 4.11406 15.8594C3.33301 15.0515 3.33301 13.7512 3.33301 11.1506V10.1366Z" stroke="#191D24" stroke-width="1.25"/>
<path d="M10 12L10 14" stroke="#191D24" stroke-width="1.25" stroke-linecap="round"/>
</svg>
