<svg width="20" height="20" viewBox="0 0 20 20" fill="none" xmlns="http://www.w3.org/2000/svg">
<path d="M6 8.66537V7.33203C6 5.12289 7.79086 3.33203 10 3.33203C12.2091 3.33203 14 5.12289 14 7.33203V8.66537" stroke="#191D24" stroke-width="1.25" stroke-linecap="round"/>
<path d="M10 11.332V13.9987" stroke="#191D24" stroke-width="1.25" stroke-linecap="round"/>
<path d="M3.3335 12.668C3.3335 10.7824 3.3335 9.83954 3.91928 9.25376C4.50507 8.66797 5.44788 8.66797 7.3335 8.66797H12.6668C14.5524 8.66797 15.4953 8.66797 16.081 9.25376C16.6668 9.83954 16.6668 10.7824 16.6668 12.668C16.6668 14.5536 16.6668 15.4964 16.081 16.0822C15.4953 16.668 14.5524 16.668 12.6668 16.668H7.3335C5.44788 16.668 4.50507 16.668 3.91928 16.0822C3.3335 15.4964 3.3335 14.5536 3.3335 12.668Z" stroke="#191D24" stroke-width="1.25"/>
</svg>
