<svg width="24" height="24" viewBox="0 0 24 24" fill="none" xmlns="http://www.w3.org/2000/svg">
<path d="M12.9679 10.9126V12.3941C12.9679 13.111 13.3517 13.7732 13.9738 14.1295L14.3078 14.3208C15.0363 14.7501 16.4022 15.5306 17.3258 16.064C18.2624 16.6103 19.095 17.1177 19.1991 17.2087C19.4072 17.3909 19.4332 17.3779 15.9079 19.4072C14.6591 20.1227 13.6704 20.7471 13.6964 20.7861C13.7224 20.8381 14.7371 21.4365 15.9599 22.139L17.1569 22.826C17.7766 23.1817 18.539 23.1798 19.1569 22.8209L20.7341 21.9049L21.8067 21.2873C22.7366 20.7519 23.3098 19.7605 23.3098 18.6874V15.3812C23.3098 14.6684 22.9304 14.0095 22.3141 13.6516L21.2934 13.059C19.8147 12.2049 15.2256 9.56454 13.1936 8.39392C13.1114 8.34658 13.0463 8.36152 13.0346 8.45564C12.9923 8.79683 12.9679 9.76129 12.9679 10.9126Z" fill="#131EF6"/>
<path d="M3.27651 12.9809L2.05143 13.6872C1.43991 14.0397 1.0595 14.6884 1.05045 15.3942L1.02602 17.2998L1.01494 18.601C1.00571 19.6855 1.58256 20.6905 2.52365 21.2296L5.80664 23.1103C6.10927 23.2836 6.43363 23.3039 6.73927 23.1358C8.78086 22.0135 16.7181 17.318 16.6494 17.2608C16.5973 17.2087 15.5697 16.5973 14.3729 15.9209L13.1947 15.2477C12.5718 14.8917 11.8059 14.8967 11.1877 15.2607L10.7955 15.4916C6.61972 17.9242 5.94328 18.3015 5.76116 18.3015C5.57903 18.3015 5.55302 17.8592 5.527 14.9973L5.5182 14.252C5.5047 13.1094 4.26394 12.4059 3.27651 12.9809Z" fill="#131EF6"/>
<path d="M8.0521 3.36892C7.43135 3.72229 7.04618 4.3799 7.04159 5.09417L7.00998 10.015C6.99697 13.3582 7.00998 16.09 7.036 16.09C7.06202 16.09 8.06368 15.5176 9.27348 14.8152L10.4949 14.1069C11.1012 13.7553 11.4793 13.1119 11.4913 12.411L11.5957 6.30978C11.5986 6.14128 11.7777 6.03464 11.9272 6.11239C12.3045 6.30752 16.4542 8.7011 17.1047 9.09136C17.2859 9.20462 17.5209 9.07434 17.5209 8.86064V5.17525C17.5209 4.45935 17.1383 3.79805 16.5176 3.44129L15.8689 3.06837L13.6953 1.8385C12.7762 1.31846 11.6514 1.31992 10.7337 1.84234L8.0521 3.36892Z" fill="#131EF6"/>
</svg>
