<svg width="20" height="20" viewBox="0 0 20 20" fill="none" xmlns="http://www.w3.org/2000/svg">
<path d="M6 7.66797L7.43926 8.86736C8.66369 9.88771 9.2759 10.3979 10 10.3979C10.7241 10.3979 11.3363 9.88771 12.5607 8.86735L14 7.66797" stroke="#191D24" stroke-width="1.25" stroke-linecap="round"/>
<path d="M3.3335 10.3333C3.3335 7.81918 3.3335 6.5621 4.11454 5.78105C4.89559 5 6.15267 5 8.66683 5H11.3335C13.8477 5 15.1047 5 15.8858 5.78105C16.6668 6.5621 16.6668 7.81918 16.6668 10.3333C16.6668 12.8475 16.6668 14.1046 15.8858 14.8856C15.1047 15.6667 13.8477 15.6667 11.3335 15.6667H8.66683C6.15267 15.6667 4.89559 15.6667 4.11454 14.8856C3.3335 14.1046 3.3335 12.8475 3.3335 10.3333Z" stroke="#191D24" stroke-width="1.25"/>
</svg>
