<svg width="32" height="32" viewBox="0 0 32 32" fill="none" xmlns="http://www.w3.org/2000/svg">
<path d="M18 19.334H14V20.0007C14 21.1052 14.8954 22.0007 16 22.0007C17.1046 22.0007 18 21.1052 18 20.0007V19.334Z" stroke="#455166" stroke-linecap="round" stroke-linejoin="round"/>
<path d="M11.3332 19.3333H20.6665C21.0347 19.3333 21.3332 19.0349 21.3332 18.6667V18.2761C21.3332 18.0993 21.2629 17.9298 21.1379 17.8048L20.7974 17.4642C20.7136 17.3804 20.6665 17.2668 20.6665 17.1483V14.6667C20.6665 12.0893 18.5772 9.99999 15.9998 10C13.4225 10 11.3332 12.0893 11.3332 14.6667V17.1483C11.3332 17.2668 11.2861 17.3804 11.2023 17.4642L10.8618 17.8047C10.7367 17.9298 10.6665 18.0993 10.6665 18.2762V18.6667C10.6665 19.0349 10.965 19.3333 11.3332 19.3333Z" stroke="#455166" stroke-linecap="round" stroke-linejoin="round"/>
</svg>
