<svg width="48" height="48" viewBox="0 0 48 48" fill="none" xmlns="http://www.w3.org/2000/svg">
<path d="M0 12C0 5.37258 5.37258 0 12 0H36C42.6274 0 48 5.37258 48 12V36C48 42.6274 42.6274 48 36 48H12C5.37258 48 0 42.6274 0 36V12Z" fill="#F9F9FA"/>
<path d="M28.4239 26.4474L29.5682 23.0145C30.5679 20.0156 31.0677 18.5161 30.2762 17.7246C29.4847 16.9331 27.9852 17.4329 24.9863 18.4326L21.5534 19.5769C19.133 20.3837 17.9228 20.7871 17.5789 21.3786C17.2517 21.9414 17.2517 22.6364 17.5789 23.1992C17.9228 23.7908 19.133 24.1942 21.5534 25.001C21.942 25.1305 22.1364 25.1953 22.2988 25.304C22.4562 25.4094 22.5914 25.5446 22.6968 25.702C22.8055 25.8645 22.8703 26.0588 22.9998 26.4474C23.8066 28.8678 24.21 30.078 24.8016 30.4219C25.3644 30.7491 26.0594 30.7491 26.6222 30.4219C27.2137 30.078 27.6171 28.8678 28.4239 26.4474Z" stroke="#455166" stroke-width="1.5"/>
<path d="M26.983 22.0798C27.2775 21.7886 27.2802 21.3137 26.9889 21.0192C26.6976 20.7247 26.2228 20.722 25.9283 21.0133L26.983 22.0798ZM23.2837 25.7383L26.983 22.0798L25.9283 21.0133L22.229 24.6718L23.2837 25.7383Z" fill="#455166"/>
</svg>
