<svg width="20" height="20" viewBox="0 0 20 20" fill="none" xmlns="http://www.w3.org/2000/svg">
<ellipse cx="9.61914" cy="10" rx="2" ry="2" stroke="#191D24" stroke-width="1.25"/>
<path d="M10.7954 3.43548C10.5504 3.33398 10.2397 3.33398 9.61848 3.33398C8.99723 3.33398 8.6866 3.33398 8.44157 3.43548C8.11487 3.5708 7.8553 3.83037 7.71998 4.15707C7.6582 4.30621 7.63403 4.47965 7.62456 4.73265C7.61066 5.10444 7.41999 5.44858 7.09779 5.6346C6.77558 5.82063 6.38222 5.81368 6.05329 5.63982C5.82945 5.52152 5.66716 5.45573 5.50711 5.43466C5.15652 5.38851 4.80194 5.48351 4.5214 5.69878C4.31099 5.86024 4.15567 6.12925 3.84504 6.66727C3.53442 7.2053 3.3791 7.47431 3.34449 7.73725C3.29833 8.08785 3.39334 8.44242 3.60861 8.72297C3.70686 8.85102 3.84496 8.95867 4.05928 9.09333C4.37436 9.29131 4.57708 9.62856 4.57706 10.0007C4.57704 10.3727 4.37432 10.7099 4.05928 10.9079C3.84492 11.0426 3.70681 11.1502 3.60854 11.2783C3.39327 11.5588 3.29826 11.9134 3.34442 12.264C3.37904 12.5269 3.53435 12.796 3.84498 13.334C4.15561 13.872 4.31092 14.141 4.52133 14.3025C4.80188 14.5177 5.15645 14.6128 5.50705 14.5666C5.66709 14.5455 5.82937 14.4797 6.05318 14.3615C6.38214 14.1876 6.77553 14.1806 7.09776 14.3667C7.41998 14.5527 7.61066 14.8969 7.62457 15.2687C7.63403 15.5217 7.6582 15.6951 7.71998 15.8442C7.8553 16.1709 8.11487 16.4305 8.44157 16.5658C8.6866 16.6673 8.99723 16.6673 9.61848 16.6673C10.2397 16.6673 10.5504 16.6673 10.7954 16.5658C11.1221 16.4305 11.3817 16.1709 11.517 15.8442C11.5788 15.6951 11.6029 15.5216 11.6124 15.2686C11.6263 14.8969 11.817 14.5527 12.1391 14.3667C12.4614 14.1806 12.8548 14.1876 13.1837 14.3614C13.4075 14.4797 13.5698 14.5455 13.7299 14.5665C14.0804 14.6127 14.435 14.5177 14.7156 14.3024C14.926 14.141 15.0813 13.872 15.3919 13.3339C15.7025 12.7959 15.8579 12.5269 15.8925 12.264C15.9386 11.9134 15.8436 11.5588 15.6284 11.2782C15.5301 11.1502 15.392 11.0425 15.1776 10.9079C14.8626 10.7099 14.6599 10.3727 14.6599 10.0006C14.6599 9.62855 14.8626 9.29137 15.1776 9.09344C15.392 8.95875 15.5301 8.85109 15.6284 8.72302C15.8437 8.44247 15.9387 8.0879 15.8925 7.7373C15.8579 7.47435 15.7026 7.20534 15.392 6.66732C15.0814 6.12929 14.926 5.86028 14.7156 5.69883C14.4351 5.48356 14.0805 5.38855 13.7299 5.43471C13.5699 5.45578 13.4076 5.52156 13.1838 5.63985C12.8548 5.81371 12.4614 5.82066 12.1392 5.63463C11.817 5.44859 11.6263 5.10442 11.6124 4.73261C11.6029 4.47964 11.5788 4.3062 11.517 4.15707C11.3817 3.83037 11.1221 3.5708 10.7954 3.43548Z" stroke="#191D24" stroke-width="1.25"/>
</svg>
