<svg width="16" height="16" viewBox="0 0 16 16" fill="none" xmlns="http://www.w3.org/2000/svg">
<g clip-path="url(#clip0_657_13345)">
<path d="M5.46651 15.9994C6.93852 15.9994 8.13322 14.8047 8.13322 13.3327V10.666H5.46651C3.9945 10.666 2.7998 11.8607 2.7998 13.3327C2.7998 14.8047 3.9945 15.9994 5.46651 15.9994Z" fill="#0ACF83"/>
<path d="M2.7998 8.00067C2.7998 6.52867 3.9945 5.33398 5.46651 5.33398H8.13322V10.6673H5.46651C3.9945 10.6674 2.7998 9.47267 2.7998 8.00067Z" fill="#985DF6"/>
<path d="M2.7998 2.66669C2.7998 1.19469 3.9945 0 5.46651 0H8.13322V5.33331H5.46651C3.9945 5.33331 2.7998 4.13869 2.7998 2.66669Z" fill="#F24E1E"/>
<path d="M8.13281 0H10.7995C12.2715 0 13.4662 1.19469 13.4662 2.66669C13.4662 4.13869 12.2715 5.33331 10.7995 5.33331H8.13281V0Z" fill="#FF7262"/>
<path d="M13.4662 8.00067C13.4662 9.47267 12.2715 10.6674 10.7995 10.6674C9.32751 10.6674 8.13281 9.47267 8.13281 8.00067C8.13281 6.52867 9.32751 5.33398 10.7995 5.33398C12.2715 5.33398 13.4662 6.52867 13.4662 8.00067Z" fill="#1ABCFE"/>
</g>
<defs>
<clipPath id="clip0_657_13345">
<rect width="16" height="16" fill="white"/>
</clipPath>
</defs>
</svg>
