<svg width="20" height="20" viewBox="0 0 20 20" fill="none" xmlns="http://www.w3.org/2000/svg">
<path d="M3.33301 10.0007C3.33301 6.85795 3.33301 5.28661 4.30932 4.3103C5.28563 3.33398 6.85698 3.33398 9.99967 3.33398C13.1424 3.33398 14.7137 3.33398 15.69 4.3103C16.6663 5.28661 16.6663 6.85795 16.6663 10.0007C16.6663 13.1433 16.6663 14.7147 15.69 15.691C14.7137 16.6673 13.1424 16.6673 9.99967 16.6673C6.85698 16.6673 5.28563 16.6673 4.30932 15.691C3.33301 14.7147 3.33301 13.1433 3.33301 10.0007Z" stroke="#191D24" stroke-width="1.25"/>
<path d="M9.375 14.0007C9.375 14.3458 9.65482 14.6257 10 14.6257C10.3452 14.6257 10.625 14.3458 10.625 14.0007H9.375ZM14 7.33398L14.4419 7.77593C14.686 7.53185 14.686 7.13612 14.4419 6.89204L14 7.33398ZM13.4419 5.89204C13.1979 5.64796 12.8021 5.64796 12.5581 5.89204C12.314 6.13612 12.314 6.53185 12.5581 6.77593L13.4419 5.89204ZM12.5581 7.89204C12.314 8.13612 12.314 8.53185 12.5581 8.77593C12.8021 9.02 13.1979 9.02 13.4419 8.77593L12.5581 7.89204ZM10.625 14.0007V10.0007H9.375V14.0007H10.625ZM12.6667 7.95898H14V6.70898H12.6667V7.95898ZM14.4419 6.89204L13.4419 5.89204L12.5581 6.77593L13.5581 7.77593L14.4419 6.89204ZM13.5581 6.89204L12.5581 7.89204L13.4419 8.77593L14.4419 7.77593L13.5581 6.89204ZM10.625 10.0007C10.625 8.87307 11.5391 7.95898 12.6667 7.95898V6.70898C10.8487 6.70898 9.375 8.18271 9.375 10.0007H10.625Z" fill="#191D24"/>
<path d="M9.375 14.0007C9.375 14.3458 9.65482 14.6257 10 14.6257C10.3452 14.6257 10.625 14.3458 10.625 14.0007H9.375ZM6 7.33398L5.55806 6.89204C5.31398 7.13612 5.31398 7.53185 5.55806 7.77593L6 7.33398ZM7.44194 6.77593C7.68602 6.53185 7.68602 6.13612 7.44194 5.89204C7.19786 5.64796 6.80214 5.64796 6.55806 5.89204L7.44194 6.77593ZM6.55806 8.77593C6.80214 9.02 7.19786 9.02 7.44194 8.77593C7.68602 8.53185 7.68602 8.13612 7.44194 7.89204L6.55806 8.77593ZM10.625 14.0007V10.0007H9.375V14.0007H10.625ZM7.33333 6.70898H6V7.95898H7.33333V6.70898ZM6.44194 7.77593L7.44194 6.77593L6.55806 5.89204L5.55806 6.89204L6.44194 7.77593ZM5.55806 7.77593L6.55806 8.77593L7.44194 7.89204L6.44194 6.89204L5.55806 7.77593ZM10.625 10.0007C10.625 8.18271 9.15127 6.70898 7.33333 6.70898V7.95898C8.46091 7.95898 9.375 8.87307 9.375 10.0007H10.625Z" fill="#191D24"/>
</svg>
