<svg width="20" height="20" viewBox="0 0 20 20" fill="none" xmlns="http://www.w3.org/2000/svg">
<path d="M11.6145 14.5523C12.0971 15.0348 12.7638 15.3333 13.5002 15.3333C14.9729 15.3333 16.1668 14.1394 16.1668 12.6667C16.1668 11.9303 15.8683 11.2636 15.3858 10.781M11.6145 14.5523C11.132 14.0697 10.8335 13.403 10.8335 12.6667C10.8335 11.1939 12.0274 10 13.5002 10C14.2365 10 14.9032 10.2985 15.3858 10.781M11.6145 14.5523L15.3858 10.781" stroke="#191D24" stroke-width="1.25" stroke-linejoin="round"/>
<path d="M11.4998 10.886C10.8822 10.7454 10.2071 10.668 9.49984 10.668C6.55432 10.668 4.1665 12.0111 4.1665 13.668C4.1665 15.3248 4.1665 16.668 9.49984 16.668C13.2915 16.668 14.3875 15.9891 14.7043 15.0013" stroke="#191D24" stroke-width="1.25"/>
<ellipse cx="9.50016" cy="5.9987" rx="2.66667" ry="2.66667" stroke="#191D24" stroke-width="1.25"/>
</svg>
