<svg width="20" height="20" viewBox="0 0 20 20" fill="none" xmlns="http://www.w3.org/2000/svg">
<path d="M4.60547 15.2627C3.37442 14.9927 2.50021 14.309 2.50021 13.5083C2.50021 12.7075 3.37442 12.0239 4.60547 11.7539" stroke="#191D24" stroke-width="1.25" stroke-linecap="round"/>
<path d="M15.833 15.2627C17.0641 14.9927 17.9383 14.309 17.9383 13.5083C17.9383 12.7075 17.0641 12.0239 15.833 11.7539" stroke="#191D24" stroke-width="1.25" stroke-linecap="round"/>
<ellipse cx="10.2193" cy="13.8578" rx="4.21053" ry="2.80702" stroke="#191D24" stroke-width="1.25"/>
<path d="M6.00879 8.24705C4.84608 8.24705 3.90353 7.46159 3.90353 6.49267C3.90353 5.52375 4.84608 4.73828 6.00879 4.73828" stroke="#191D24" stroke-width="1.25" stroke-linecap="round"/>
<path d="M14.4297 8.24705C15.5924 8.24705 16.535 7.46159 16.535 6.49267C16.535 5.52375 15.5924 4.73828 14.4297 4.73828" stroke="#191D24" stroke-width="1.25" stroke-linecap="round"/>
<ellipse cx="10.2191" cy="6.13905" rx="2.80702" ry="2.80702" stroke="#191D24" stroke-width="1.25"/>
</svg>
